<svg width="1763" height="409" viewBox="0 0 1763 409" fill="none" xmlns="http://www.w3.org/2000/svg">
<path d="M18.9051 408.479C8.46058 408.479 0 399.962 0 389.448V19.1321C0 8.61813 8.46058 0.101318 18.9051 0.101318H258.327C305.516 0.101318 339.456 25.9323 339.456 81.7703V326.794C339.456 382.632 305.516 408.463 258.327 408.463H18.9051V408.479ZM246.718 345.973C269.066 345.973 273.215 333.478 273.215 319.3V89.2802C273.215 75.1186 269.083 62.6074 246.718 62.6074H74.9155C70.1278 62.6074 66.2418 66.5192 66.2418 71.3388V337.225C66.2418 342.045 70.1278 345.956 74.9155 345.956H246.734L246.718 345.973Z" fill="#101010"/>
<path d="M355.611 97.7462C355.611 43.8889 398.98 0.248535 452.482 0.248535H598.214C651.715 0.248535 695.084 43.9054 695.084 97.7627V311.129C695.084 364.986 651.715 408.643 598.214 408.643H452.482C398.98 408.643 355.611 364.986 355.611 311.129V97.7462ZM486.455 63.6955C450.776 63.6955 421.853 92.8111 421.853 128.727V275.708C421.853 311.624 450.776 340.739 486.455 340.739H564.224C599.902 340.739 628.826 311.624 628.826 275.708V128.727C628.826 92.8111 599.902 63.6955 564.224 63.6955H486.455Z" fill="#101010"/>
<path d="M1066.77 97.7451C1066.77 43.8879 1110.14 0.230957 1163.64 0.230957H1309.37C1362.87 0.230957 1406.24 43.8879 1406.24 97.7451V311.111C1406.24 364.968 1362.87 408.625 1309.37 408.625H1163.64C1110.14 408.625 1066.77 364.968 1066.77 311.111V97.7451ZM1197.61 63.6944C1161.93 63.6944 1133.01 92.81 1133.01 128.726V275.707C1133.01 311.623 1161.93 340.738 1197.61 340.738H1275.38C1311.06 340.738 1339.98 311.623 1339.98 275.707V128.726C1339.98 92.81 1311.06 63.6944 1275.38 63.6944H1197.61Z" fill="#101010"/>
<path d="M1423.07 14.3606C1423.07 6.48746 1429.4 0.0998535 1437.24 0.0998535H1673.1C1720.29 0.0998535 1754.23 25.9309 1754.23 81.7688V151.768C1754.23 199.436 1729.4 225.894 1691.92 231.886C1689.15 232.331 1687.56 235.302 1688.74 237.844L1762.51 398.459C1765 403.46 1757.43 408.461 1752.57 408.461H1700.42C1695.45 408.461 1692.14 405.952 1688.82 398.459L1618.45 243.44C1615.14 235.946 1609.33 233.437 1600.23 233.437H1501.84C1494.9 233.437 1489.28 239.099 1489.28 246.081V385.832C1489.28 398.343 1479.21 408.478 1466.78 408.478H1445.52C1433.1 408.478 1423.04 398.343 1423.04 385.849V14.3606H1423.05H1423.07ZM1489.31 152.33C1489.31 162.612 1497.59 170.948 1507.81 170.948H1661.52C1683.87 170.948 1688.02 158.453 1688.02 144.275V89.2623C1688.02 75.1006 1683.89 62.5895 1661.52 62.5895H1516.14C1501.31 62.5895 1489.31 74.6714 1489.31 89.5924V152.313V152.33Z" fill="#101010"/>
<path d="M953.767 0H808.035C754.534 0 711.165 43.6569 711.165 97.5142V310.88C711.165 364.737 754.534 408.394 808.035 408.394H953.767C1007.27 408.394 1050.64 364.737 1050.64 310.88V97.5142C1050.64 43.6569 1007.27 0 953.767 0ZM919.777 340.491H842.009C806.33 340.491 777.407 311.375 777.407 275.459V128.478C777.407 92.5625 806.33 63.4469 842.009 63.4469H919.777C955.456 63.4469 984.38 92.5625 984.38 128.478V141.336V257.039V275.476C984.38 311.392 955.456 340.507 919.777 340.507V340.491Z" fill="#101010"/>
<path d="M993.547 154.425H978.363H938.356C927.206 154.425 918.172 163.932 918.172 175.667V224.226C918.172 235.962 927.206 245.485 938.372 245.485H993.547C1004.7 245.485 1013.73 235.978 1013.73 224.226V175.667C1013.73 163.932 1004.7 154.408 993.547 154.408V154.425ZM984.315 207.705C984.315 212.59 980.38 216.551 975.527 216.551H956.392C951.539 216.551 947.604 212.59 947.604 207.705V192.222C947.604 187.337 951.539 183.375 956.392 183.375H975.527C980.38 183.375 984.315 187.337 984.315 192.222V207.705Z" fill="#356AFF"/>
<path d="M975.523 183.376H956.388C951.535 183.376 947.6 187.338 947.6 192.223V207.705C947.6 212.591 951.535 216.552 956.388 216.552H975.523C980.376 216.552 984.311 212.591 984.311 207.705V192.223C984.311 187.338 980.376 183.376 975.523 183.376Z" fill="#101010"/>
</svg>
