<svg width="142" height="33" viewBox="0 0 142 33" fill="none" xmlns="http://www.w3.org/2000/svg">
<path d="M20.4331 0.634766H0.260803C0.117095 0.634766 0 0.751861 0 0.895569V32.4652C0 32.6089 0.117095 32.726 0.260803 32.726H20.4331C24.166 32.726 26.8521 30.6963 26.8521 26.307V7.05195C26.8521 2.66442 24.166 0.634766 20.4331 0.634766ZM21.6112 25.718C21.6112 26.8304 21.2847 27.8133 19.5159 27.8133H5.49993C5.35623 27.8133 5.23913 27.6962 5.23913 27.5525V5.80648C5.23913 5.66277 5.35623 5.54567 5.49993 5.54567H19.5177C21.2865 5.54567 21.613 6.52857 21.613 7.64097V25.7162L21.6112 25.718Z" fill="#FFF"/>
<path d="M49.2681 0.635742H34.6631C31.2815 0.635742 28.5404 3.37684 28.5404 6.75841V26.6025C28.5404 29.9841 31.2815 32.7252 34.6631 32.7252H49.2681C52.6496 32.7252 55.3907 29.9841 55.3907 26.6025V6.75841C55.3907 3.37684 52.6496 0.635742 49.2681 0.635742ZM50.1534 16.126V23.6326C50.1534 25.9425 48.2816 27.8143 45.9716 27.8143H37.963C35.6531 27.8143 33.7813 25.9425 33.7813 23.6326V9.73015C33.7813 7.42018 35.6531 5.54843 37.963 5.54843H45.9716C48.2816 5.54843 50.1534 7.42018 50.1534 9.73015V15.9273" fill="#FFF"/>
<path d="M77.8066 0.635742H63.2016C59.8201 0.635742 57.079 3.37684 57.079 6.75841V26.6025C57.079 29.9841 59.8201 32.7252 63.2016 32.7252H77.8066C81.1882 32.7252 83.9293 29.9841 83.9293 26.6025V6.75841C83.9293 3.37684 81.1882 0.635742 77.8066 0.635742ZM78.6919 16.126V23.6326C78.6919 25.9425 76.8202 27.8143 74.5102 27.8143H66.5016C64.1916 27.8143 62.3199 25.9425 62.3199 23.6326V9.73015C62.3199 7.42018 64.1916 5.54843 66.5016 5.54843H74.5102C76.8202 5.54843 78.6919 7.42018 78.6919 9.73015V15.9273" fill="#FFF"/>
<path d="M106.345 0.635742H91.7404C88.3588 0.635742 85.6177 3.37684 85.6177 6.75841V26.6025C85.6177 29.9841 88.3588 32.7252 91.7404 32.7252H106.345C109.727 32.7252 112.468 29.9841 112.468 26.6025V6.75841C112.468 3.37684 109.727 0.635742 106.345 0.635742ZM107.231 16.126V23.6326C107.231 25.9425 105.359 27.8143 103.049 27.8143H95.0403C92.7303 27.8143 90.8586 25.9425 90.8586 23.6326V9.73015C90.8586 7.42018 92.7303 5.54843 95.0403 5.54843H103.049C105.359 5.54843 107.231 7.42018 107.231 9.73015V15.9273" fill="#FFF"/>
<path d="M114.156 0.952342C114.156 0.776699 114.298 0.634766 114.474 0.634766H133.935C137.668 0.634766 140.354 2.66442 140.354 7.05372V12.5554C140.354 16.3114 138.379 18.3907 135.404 18.8537C135.196 18.8857 135.076 19.1092 135.164 19.2991L141.008 31.94C141.205 32.3321 140.811 32.726 140.222 32.726H136.096C135.704 32.726 135.441 32.5291 135.178 31.94L129.611 19.7586C129.348 19.1695 128.891 18.9726 128.17 18.9726H119.713C119.537 18.9726 119.395 19.1145 119.395 19.2902V32.4084C119.395 32.5841 119.253 32.726 119.078 32.726H114.474C114.298 32.726 114.156 32.5841 114.156 32.4084V0.952342ZM119.395 14.0599H133.017C134.786 14.0599 135.113 13.077 135.113 11.9646V7.64275C135.113 6.52857 134.785 5.54745 133.017 5.54745H119.713C119.537 5.54745 119.395 5.68938 119.395 5.86503V14.0617V14.0599Z" fill="#FFF"/>
<path d="M76.1686 14.3086H81.1423C81.215 14.3086 81.2735 14.3671 81.2735 14.4399V18.9197C81.2735 18.9924 81.215 19.051 81.1423 19.051H76.1686C76.0959 19.051 76.0374 18.9924 76.0374 18.9197V14.4399C76.0374 14.3671 76.0959 14.3086 76.1686 14.3086Z" fill="#1D58FF"/>
<path d="M79.5909 15.8403H77.7184V17.5205H79.5909V15.8403Z" fill="#FFF"/>
</svg>
