<svg width="20" height="20" viewBox="0 0 20 20" fill="none" xmlns="http://www.w3.org/2000/svg">
<path d="M3.33325 7.67035C3.33325 5.94272 3.33325 5.07891 3.63127 4.37735C3.8802 3.79134 4.27309 3.28834 4.76817 2.92182C5.36087 2.48304 6.15629 2.32852 7.74713 2.01947C9.40134 1.6981 10.2285 1.53742 10.8722 1.79348C11.4069 2.00619 11.8574 2.40795 12.149 2.93203C12.4999 3.5629 12.4999 4.46114 12.4999 6.25764V13.7425C12.4999 15.539 12.4999 16.4373 12.149 17.0681C11.8574 17.5922 11.4069 17.9939 10.8722 18.2067C10.2285 18.4628 9.40134 18.302 7.74713 17.9807C6.15629 17.6716 5.36087 17.5171 4.76817 17.0784C4.27309 16.7119 3.8802 16.2089 3.63127 15.6228C3.33325 14.9213 3.33325 14.0574 3.33325 12.3298V7.67035Z" stroke="#F3F3F3" stroke-width="1.25"/>
<path d="M12.5 16.4984C13.7061 16.6239 15.3332 17.0096 16.1979 15.9069C16.6667 15.3093 16.6667 14.3988 16.6667 12.5777V7.42212C16.6667 5.60107 16.6667 4.69055 16.1979 4.09286C15.3332 2.99026 13.7061 3.37599 12.5 3.50139" stroke="#F3F3F3" stroke-width="1.25"/>
<path d="M10 10.8334V9.16675" stroke="#F3F3F3" stroke-width="1.25" stroke-linecap="round" stroke-linejoin="round"/>
<path d="M15.8333 16.4387H18.3333" stroke="#F3F3F3" stroke-width="1.25" stroke-linecap="round" stroke-linejoin="round"/>
<path d="M1.66675 16.6667H4.16675" stroke="#F3F3F3" stroke-width="1.25" stroke-linecap="round" stroke-linejoin="round"/>
</svg>
